<svg id="Layer_1" data-name="Layer 1" xmlns="http://www.w3.org/2000/svg" viewBox="0 0 799.72 735.71"><defs><style>.cls-1,.cls-3,.cls-4{fill:#fff;}.cls-1{stroke:#98c7ea;stroke-miterlimit:10;}.cls-2{fill:#010101;}.cls-3{font-size:177.65px;font-family:Berlin Sans FB;}.cls-4{font-size:94.46px;font-family:Myriad Pro;}.cls-5{letter-spacing:1px;}.cls-6{letter-spacing:-1px;}</style></defs><title>level-0</title><path class="cls-1" d="M672.49,268.72c-6.68-76.52-51.91-147.06-115.38-189.31C522.34,56.2,482,42,440.64,36.57c-114-14.75-234,35.27-277,147.26-37,96.25,2.89,211.83,69,284.66,23.91,26.3,23.81,55.7,23.81,89.08v67.55A18.86,18.86,0,0,0,275.24,644H519.65a18.75,18.75,0,0,0,18.73-17.54c0.9-13.25,2.39-25,2.39-25,5.08-21.92,23.81-39.46,63.57-33.08,41.65,6.68,68-5.78,70.34-33.48,0.2-2.19.4-26.9,0.5-34.37,0-2.49-20.82-7.27-20.72-10.06,0.1-6.28,19.13-2.19,19.23-8.87,0.2-18.63,4.28-26.1,4.28-26.1,2-1.1,13.05-11.76,32.08-16a19.19,19.19,0,0,0,14.45-23,18.71,18.71,0,0,0-5.28-9.47c-43.34-42.84-49.12-62.77-50.22-67.16C663.73,318.34,674.39,291.14,672.49,268.72Z" transform="translate(74.22 -33.54)"/><path class="cls-2" d="M311.51,171.08a14.88,14.88,0,0,0-14.85,14.85,15.2,15.2,0,0,0,1.79,7.07L274,217.41a19.75,19.75,0,0,0-24.31,0l-19-19a9.63,9.63,0,0,0,1.39-5,10,10,0,1,0-10,10,9.63,9.63,0,0,0,5-1.39l19,19a19.75,19.75,0,0,0,0,24.31l-31.39,31.39a14.81,14.81,0,1,0,4.88,11,15.2,15.2,0,0,0-1.79-7.07l31.88-31.88a19.83,19.83,0,0,0,9.66,4v25.21a14.85,14.85,0,1,0,4.78,0V252.78a20.4,20.4,0,0,0,9.66-4l19,19a9.63,9.63,0,0,0-1.39,5,10,10,0,1,0,10-10,9.63,9.63,0,0,0-5,1.39l-18.93-18.93a19.75,19.75,0,0,0,0-24.31l23.91-24A14.86,14.86,0,1,0,311.51,171.08ZM217.15,193.4a5,5,0,0,1,10,0A5,5,0,0,1,217.15,193.4ZM204.7,297.62a10,10,0,1,1,10-10A10,10,0,0,1,204.7,297.62Zm67.06-4.88a10,10,0,1,1-10-10A10,10,0,0,1,271.75,292.73Zm-10-44.74a14.85,14.85,0,1,1,14.85-14.85A14.88,14.88,0,0,1,261.79,248Zm44.74,24.81a5,5,0,1,1-5-5A5.06,5.06,0,0,1,306.53,272.81Zm5-76.92a10,10,0,1,1,10-10A10.12,10.12,0,0,1,311.51,195.89Z" transform="translate(74.22 -33.54)"/><path class="cls-2" d="M348,143.58a10.37,10.37,0,0,0,13-6.68,11,11,0,0,0,.3-5.08l21.22-11a13.78,13.78,0,0,0,16,5.08l8.57,16.54a6.86,6.86,0,1,0,6.68-1.49,6.31,6.31,0,0,0-3.59-.1l-8.57-16.54a13.78,13.78,0,0,0,5.08-16l27.4-14.15a10.13,10.13,0,0,0,5.78,4.68,10.3,10.3,0,1,0-6.68-13,11,11,0,0,0-.3,5.08l-27.7,14.35a14.24,14.24,0,0,0-5.58-4.68L404.87,84a10.25,10.25,0,0,0,11.26-7.07,10.3,10.3,0,0,0-19.63-6.28,10.18,10.18,0,0,0,5.08,12.26L396.3,99.54a13.82,13.82,0,0,0-7.27.6L380.46,83.6a6.86,6.86,0,1,0-6.68,1.49,6.31,6.31,0,0,0,3.59.1l8.57,16.54a13.4,13.4,0,0,0-5.28,7.17,14.14,14.14,0,0,0,.2,8.87l-20.92,10.76a10.13,10.13,0,0,0-5.78-4.68,10.37,10.37,0,0,0-13,6.68A10.62,10.62,0,0,0,348,143.58Zm67,5.18a3.4,3.4,0,1,1-2.19-4.28A3.35,3.35,0,0,1,414.93,148.76ZM445.12,82.6a6.9,6.9,0,1,1-8.67,4.48A6.78,6.78,0,0,1,445.12,82.6ZM399.89,71.74a6.9,6.9,0,1,1,4.48,8.67A6.86,6.86,0,0,1,399.89,71.74ZM397,103.32A10.3,10.3,0,1,1,384,110,10.17,10.17,0,0,1,397,103.32ZM372.79,77.52A3.4,3.4,0,1,1,375,81.8,3.39,3.39,0,0,1,372.79,77.52Zm-19.53,49.72a7,7,0,0,1,4.48,8.67,6.86,6.86,0,0,1-8.67,4.48,7,7,0,0,1-4.48-8.67A6.82,6.82,0,0,1,353.26,127.24Z" transform="translate(74.22 -33.54)"/><path class="cls-2" d="M328,213.82a10.25,10.25,0,0,0,14.15,3.39,9.53,9.53,0,0,0,3.49-3.69L368.9,219a13.64,13.64,0,0,0,2,8.67,14.11,14.11,0,0,0,6.87,5.68l-4.28,18.13a6.41,6.41,0,0,0-3.49,1,6.87,6.87,0,1,0,9.47,2.19,6.2,6.2,0,0,0-2.69-2.39l4.28-18.13a13.64,13.64,0,0,0,8.67-2,14.11,14.11,0,0,0,5.68-6.87l30,7.07a10.08,10.08,0,0,0,1.39,7.27,10.29,10.29,0,1,0,3.39-14.15,9.53,9.53,0,0,0-3.49,3.69L396.3,222a12.92,12.92,0,0,0-1.2-7.17L410,205.65a10.3,10.3,0,1,0,2.39-15.54,10.22,10.22,0,0,0-4.09,12.65l-14.85,9.17a13.85,13.85,0,0,0-5.88-4.28l4.28-18.13a6.41,6.41,0,0,0,3.49-1,6.87,6.87,0,1,0-9.47-2.19,6.2,6.2,0,0,0,2.69,2.39l-4.28,18.13a13.64,13.64,0,0,0-8.67,2,14.11,14.11,0,0,0-5.68,6.87l-22.82-5.38a10.08,10.08,0,0,0-1.39-7.27A10.33,10.33,0,0,0,328,213.82Zm47.43,47.43a3.4,3.4,0,1,1,1.1-4.68A3.4,3.4,0,0,1,375.48,261.25Zm66-30.69a6.87,6.87,0,1,1-9.47-2.19A6.91,6.91,0,0,1,441.44,230.56Zm-27.3-37.66a6.87,6.87,0,1,1-2.19,9.47A6.74,6.74,0,0,1,414.14,192.9ZM391.42,215a10.29,10.29,0,1,1-14.15-3.39A10.43,10.43,0,0,1,391.42,215Zm-1.69-35.27a3.4,3.4,0,1,1-1.1,4.68A3.4,3.4,0,0,1,389.72,179.75Zm-47.13,25a6.87,6.87,0,1,1-9.47-2.19A6.91,6.91,0,0,1,342.6,204.75Z" transform="translate(74.22 -33.54)"/><path class="cls-2" d="M465.35,152a10.41,10.41,0,0,0,11.86,8.47,10,10,0,0,0,4.68-2.09l19.53,13.85a13.89,13.89,0,0,0-1.49,8.77,13.42,13.42,0,0,0,4.28,7.77l-10.76,15.24a7.16,7.16,0,0,0-3.59-.4,6.88,6.88,0,1,0,8,5.58,7.14,7.14,0,0,0-1.49-3.29l10.76-15.24a13.89,13.89,0,0,0,8.77,1.49,13.42,13.42,0,0,0,7.77-4.28l25.11,17.83a10.77,10.77,0,0,0-1.49,7.27,10.3,10.3,0,1,0,8.47-11.86,10,10,0,0,0-4.68,2.09l-25.41-18a14.21,14.21,0,0,0,1.59-7.07l17.24-2.89A10.21,10.21,0,0,0,555.92,182a10.3,10.3,0,1,0-12-10.16l-17.24,2.89a13.91,13.91,0,0,0-3.89-6.18l10.76-15.24a7.16,7.16,0,0,0,3.59.4,6.88,6.88,0,1,0-8-5.58,7.14,7.14,0,0,0,1.49,3.29l-10.76,15.24a13.89,13.89,0,0,0-8.77-1.49,13.42,13.42,0,0,0-7.77,4.28l-19.13-13.55a10.77,10.77,0,0,0,1.49-7.27A10.35,10.35,0,0,0,465.35,152Zm26.2,61.77a3.44,3.44,0,1,1,2.79-4A3.42,3.42,0,0,1,491.55,213.82Zm72.64-3.59a6.88,6.88,0,1,1-8-5.58A6.82,6.82,0,0,1,564.19,210.23ZM553,165a6.88,6.88,0,1,1-5.58,8A6.87,6.87,0,0,1,553,165Zm-29.39,12a10.3,10.3,0,1,1-11.86-8.47A10.35,10.35,0,0,1,523.64,177Zm11.76-33.38a3.44,3.44,0,1,1-2.79,4A3.47,3.47,0,0,1,535.39,143.58Zm-53.11,5.58a6.88,6.88,0,1,1-8-5.58A6.84,6.84,0,0,1,482.29,149.16Z" transform="translate(74.22 -33.54)"/><path class="cls-2" d="M414.73,319.93a10.37,10.37,0,0,0,13-6.68,11,11,0,0,0,.3-5.08l21.22-11a13.78,13.78,0,0,0,16,5.08l8.57,16.54a6.86,6.86,0,1,0,6.68-1.49,6.31,6.31,0,0,0-3.59-.1l-8.57-16.54a13.78,13.78,0,0,0,5.08-16l27.4-14.15a10.13,10.13,0,0,0,5.78,4.68,10.3,10.3,0,1,0-6.68-13,11,11,0,0,0-.3,5.08l-27.7,14.35a14.24,14.24,0,0,0-5.58-4.68l5.28-16.64a10.25,10.25,0,0,0,11.26-7.07A10.3,10.3,0,0,0,463.26,247a10.18,10.18,0,0,0,5.08,12.26l-5.28,16.64a13.82,13.82,0,0,0-7.27.6L447.21,260a6.86,6.86,0,1,0-6.68,1.49,6.31,6.31,0,0,0,3.59.1l8.57,16.54a13.78,13.78,0,0,0-5.08,16l-20.92,10.76a10.13,10.13,0,0,0-5.78-4.68,10.37,10.37,0,0,0-13,6.68A10.62,10.62,0,0,0,414.73,319.93Zm67,5.18a3.4,3.4,0,1,1-2.19-4.28A3.31,3.31,0,0,1,481.69,325.12ZM511.88,259a6.9,6.9,0,1,1-8.67,4.48A6.78,6.78,0,0,1,511.88,259ZM466.64,248.1a6.9,6.9,0,1,1,4.48,8.67A6.82,6.82,0,0,1,466.64,248.1Zm-2.89,31.58a10.3,10.3,0,1,1-13,6.68A10.25,10.25,0,0,1,463.75,279.68Zm-24.21-25.81a3.4,3.4,0,1,1,2.19,4.28A3.39,3.39,0,0,1,439.54,253.87ZM420,303.59a6.9,6.9,0,1,1-8.67,4.48A6.86,6.86,0,0,1,420,303.59Z" transform="translate(74.22 -33.54)"/><path class="cls-2" d="M225.82,157.63a6.15,6.15,0,0,0,7.87-7l12.55-6.48a8.46,8.46,0,0,0,4.18,3.19,8,8,0,0,0,5.28-.1l5.08,9.76a5.65,5.65,0,0,0-1.2,1.79,4,4,0,1,0,5.08-2.59,5,5,0,0,0-2.09-.1l-5.08-9.76a8.46,8.46,0,0,0,3.19-4.18,8,8,0,0,0-.1-5.28l16.14-8.37a5.93,5.93,0,0,0,3.39,2.79,6.11,6.11,0,0,0,3.69-11.66,6,6,0,0,0-7.67,4,6.11,6.11,0,0,0-.2,3l-16.34,8.47a8.22,8.22,0,0,0-3.29-2.79l3.09-9.76a6,6,0,1,0-2-.6l-3.09,9.76a7.84,7.84,0,0,0-4.28.4l-5-9.86a5.65,5.65,0,0,0,1.2-1.79,4,4,0,1,0-5.08,2.59,5,5,0,0,0,2.09.1l5.08,9.76a8.46,8.46,0,0,0-3.19,4.18,8,8,0,0,0,.1,5.28l-12.35,6.38a5.93,5.93,0,0,0-3.39-2.79,6.12,6.12,0,0,0-7.67,4A6.24,6.24,0,0,0,225.82,157.63Zm39.56,3a2,2,0,1,1-1.3-2.59A2.13,2.13,0,0,1,265.38,160.61Zm17.74-39a4,4,0,1,1-5.08,2.59A4.06,4.06,0,0,1,283.11,121.66Zm-26.7-6.38a4,4,0,1,1,2.59,5.08A4.06,4.06,0,0,1,256.41,115.28Zm-1.69,18.53a6.11,6.11,0,1,1-7.67,4A6.16,6.16,0,0,1,254.72,133.81Zm-14.25-15.14a2,2,0,1,1,1.3,2.59A2,2,0,0,1,240.47,118.67ZM228.91,148a4,4,0,1,1-5.08,2.59A4.06,4.06,0,0,1,228.91,148Z" transform="translate(74.22 -33.54)"/><path class="cls-2" d="M194.93,378.12a6.52,6.52,0,0,0,8.17-4.18,7,7,0,0,0,.2-3.19l13.35-6.87a9,9,0,0,0,4.48,3.39,8.88,8.88,0,0,0,5.58-.1l5.38,10.46a4.3,4.3,0,0,0-1.3,1.89,4.35,4.35,0,1,0,5.48-2.79,5.93,5.93,0,0,0-2.29-.1l-5.28-10.56a9,9,0,0,0,3.39-4.48A8.88,8.88,0,0,0,232,356l17.24-8.87a6.13,6.13,0,0,0,3.59,2.89,6.49,6.49,0,1,0-4.18-8.17,7,7,0,0,0-.2,3.19L231,354a9.18,9.18,0,0,0-3.49-3l3.39-10.46a6.59,6.59,0,1,0-2.09-.7l-3.39,10.46a8.94,8.94,0,0,0-4.58.4l-5.38-10.26a4.3,4.3,0,0,0,1.3-1.89,4.35,4.35,0,1,0-5.48,2.79,5.93,5.93,0,0,0,2.29.1l5.38,10.46a9,9,0,0,0-3.39,4.48,8.88,8.88,0,0,0,.1,5.58l-13.15,6.78a6.13,6.13,0,0,0-3.59-2.89,6.52,6.52,0,0,0-8.17,4.18A6.37,6.37,0,0,0,194.93,378.12Zm42.25,3.29a2.14,2.14,0,1,1-1.39-2.69A2.26,2.26,0,0,1,237.18,381.41Zm18.93-41.65a4.35,4.35,0,1,1-5.48,2.79A4.36,4.36,0,0,1,256.11,339.76Zm-28.5-6.87a4.35,4.35,0,1,1,2.79,5.48A4.44,4.44,0,0,1,227.62,332.89Zm-1.79,19.93a6.49,6.49,0,1,1-8.17,4.18A6.52,6.52,0,0,1,225.82,352.81Zm-15.24-16.24a2.14,2.14,0,1,1,1.39,2.69A2.17,2.17,0,0,1,210.58,336.57Zm-12.26,31.29a4.35,4.35,0,1,1-5.48,2.79A4.36,4.36,0,0,1,198.32,367.86Z" transform="translate(74.22 -33.54)"/><path class="cls-2" d="M327.55,405.82a10.36,10.36,0,0,0,2.59-14.35,9.86,9.86,0,0,0-3.79-3.29l4.18-23.51a13.4,13.4,0,0,0,8.57-2.39,13.89,13.89,0,0,0,5.28-7.17l18.33,3.29a7,7,0,0,0,1.2,3.39,6.94,6.94,0,1,0-.6-6.78L345,351.72a13.4,13.4,0,0,0-2.39-8.57,13.89,13.89,0,0,0-7.17-5.28l5.38-30.29a9.9,9.9,0,0,0,7.17-1.79,10.31,10.31,0,1,0-14.35-2.59,9.86,9.86,0,0,0,3.79,3.29l-5.48,30.69a14.62,14.62,0,0,0-7.07,1.49l-10-14.35a10.3,10.3,0,1,0-15.64-1.49,10.19,10.19,0,0,0,12.85,3.39l10,14.35a13.3,13.3,0,0,0-3.89,6.08l-18.33-3.29a7,7,0,0,0-1.2-3.39,6.94,6.94,0,1,0,.6,6.78L317.59,350a13.4,13.4,0,0,0,2.39,8.57,13.89,13.89,0,0,0,7.17,5.28L323,387a9.9,9.9,0,0,0-7.17,1.79,10.36,10.36,0,0,0-2.59,14.35A10.19,10.19,0,0,0,327.55,405.82Zm44.74-50a3.44,3.44,0,1,1-4.78-.9A3.6,3.6,0,0,1,372.29,355.8Zm-34.18-64.07a6.87,6.87,0,1,1-1.69,9.57A6.88,6.88,0,0,1,338.11,291.74ZM301.94,321a6.87,6.87,0,1,1,9.57,1.69A6.88,6.88,0,0,1,301.94,321Zm23.31,21.42a10.31,10.31,0,1,1-2.59,14.35A10.27,10.27,0,0,1,325.26,342.45ZM290.09,346a3.44,3.44,0,1,1,4.78.9A3.4,3.4,0,0,1,290.09,346Zm27.6,45.73a6.87,6.87,0,1,1-1.69,9.57A6.88,6.88,0,0,1,317.69,391.77Z" transform="translate(74.22 -33.54)"/><text class="cls-3" transform="translate(149.67 605.29) rotate(-90)">iKnowIT</text><text class="cls-4" transform="translate(31.52 712.09)">S<tspan class="cls-5" x="46.57" y="0">k</tspan><tspan x="92.48" y="0">ill </tspan><tspan class="cls-6" x="179.19" y="0">L</tspan><tspan x="222.45" y="0">ea</tspan><tspan x="315.3" y="0">r</tspan><tspan x="346.57" y="0">ning </tspan><tspan class="cls-6" x="546.35" y="0">L</tspan><tspan x="589.61" y="0">e</tspan><tspan x="636.93" y="0">v</tspan><tspan x="681.42" y="0">el</tspan></text></svg>