<?xml version="1.0" encoding="utf-8"?>
<!-- Generator: Adobe Illustrator 19.2.0, SVG Export Plug-In . SVG Version: 6.00 Build 0)  -->
<svg version="1.1" id="Capa_1" xmlns="http://www.w3.org/2000/svg" xmlns:xlink="http://www.w3.org/1999/xlink" x="0px" y="0px"
	 viewBox="0 0 512 512" style="enable-background:new 0 0 512 512;" xml:space="preserve">
<style type="text/css">
	.st0{fill:#FFFFFF;}
	.st1{fill:#953163;}
</style>
<rect x="136" y="83" class="st0" width="233" height="368"/>
<g>
	<path class="st1" d="M252.6,0C111.2,1.9-1.9,118.1,0,259.4c1.9,141.3,118,254.4,259.4,252.5c141.3-1.9,254.4-118.1,252.5-259.4
		C510.1,111.2,393.9-1.9,252.6,0z M251.8,411.8l-1.4,0c-21.8-0.6-37.1-16.7-36.5-38.1c0.6-21.1,16.3-36.4,37.4-36.4l1.3,0
		c22.4,0.7,37.6,16.5,36.9,38.6C288.9,397.1,273.4,411.8,251.8,411.8z M343.4,230.1c-5.1,7.3-16.4,16.3-30.6,27.4l-15.6,10.8
		c-8.6,6.7-13.8,12.9-15.7,19.1c-1.5,4.9-2.3,6.1-2.4,16l0,2.5h-59.6l0.2-5c0.7-20.7,1.2-33,9.8-43c13.5-15.8,43.2-35,44.5-35.8
		c4.3-3.2,7.9-6.9,10.5-10.8c6.3-8.6,9-15.4,9-22.1c0-9.3-2.7-17.8-8.2-25.5c-5.2-7.4-15.2-11.1-29.5-11.1c-14.2,0-24,4.5-29.8,13.8
		c-6,9.5-9,19.5-9,29.8v2.5h-61.5l0.1-2.7c1.6-37.7,15-64.8,39.9-80.6c15.7-10.1,35.1-15.2,57.9-15.2c29.8,0,54.9,7.2,74.6,21.5
		c20,14.4,30.2,36.1,30.2,64.3C358.2,201.8,353.2,216.6,343.4,230.1z"/>
</g>
</svg>
